<svg xmlns="http://www.w3.org/2000/svg" width="1600" height="900" viewBox="0 0 1600 900" role="img" aria-labelledby="title desc">
<title id="title">AI Engineer portfolio preview</title><desc id="desc">AI Engineer positioning and three selected projects</desc>
<rect width="1600" height="900" fill="#f7f8f5"/><line x1="0" y1="68" x2="1600" y2="68" stroke="#dfe3dc"/>
<rect x="96" y="20" width="30" height="30" rx="8" fill="#16243b"/><text x="111" y="41" text-anchor="middle" fill="#fff" font-family="Arial" font-size="13" font-weight="900">M</text>
<text x="140" y="41" fill="#142033" font-family="Arial" font-size="14" font-weight="800">AI Engineer Portfolio</text>
<text x="96" y="150" fill="#b51e2a" font-family="Arial" font-size="16" font-weight="800" letter-spacing="2">AI ENGINEER · RAG / SEARCH / RANKING / RL</text>
<text x="96" y="266" fill="#142033" font-family="Arial" font-size="94" font-weight="850">AI Engineer</text>
<text x="96" y="326" fill="#142033" font-family="Arial" font-size="27" font-weight="750">Data → Evaluation → Backend → Service</text>
<text x="96" y="370" fill="#596273" font-family="Arial" font-size="20">Model output checked against data, evaluation conditions and actual behavior.</text>
<g transform="translate(1080 128)"><rect width="420" height="300" rx="24" fill="#16243b"/><rect x="338" width="82" height="6" fill="#e2303d"/><text x="34" y="44" fill="#f48a91" font-family="Arial" font-size="13" font-weight="800">WORKING RANGE</text><line x1="34" y1="70" x2="386" y2="70" stroke="#31415c"/><text x="34" y="112" fill="#f48a91" font-family="Arial" font-size="13" font-weight="800">01</text><text x="78" y="112" fill="#fff" font-family="Arial" font-size="18" font-weight="800">AI / Evaluation</text><text x="78" y="136" fill="#bdc6d5" font-family="Arial" font-size="13">RAG · Ranking · PPO</text><line x1="34" y1="160" x2="386" y2="160" stroke="#31415c"/><text x="34" y="202" fill="#f48a91" font-family="Arial" font-size="13" font-weight="800">02</text><text x="78" y="202" fill="#fff" font-family="Arial" font-size="18" font-weight="800">Backend / Data</text><text x="78" y="226" fill="#bdc6d5" font-family="Arial" font-size="13">FastAPI · SQL · Pipeline</text><line x1="34" y1="250" x2="386" y2="250" stroke="#31415c"/><text x="34" y="286" fill="#f48a91" font-family="Arial" font-size="13" font-weight="800">03</text><text x="78" y="286" fill="#fff" font-family="Arial" font-size="18" font-weight="800">Deploy / Operate</text></g>
<text x="96" y="500" fill="#b51e2a" font-family="Arial" font-size="14" font-weight="800">SELECTED WORK</text>
<g transform="translate(96 536)"><rect width="430" height="250" rx="20" fill="#fff" stroke="#dfe3dc"/><text x="28" y="44" fill="#b51e2a" font-family="Arial" font-size="12" font-weight="800">RANKING · DATA PIPELINE</text><text x="28" y="92" fill="#142033" font-family="Arial" font-size="30" font-weight="850">DONGNET</text><text x="28" y="130" fill="#596273" font-family="Arial" font-size="16">LLM evaluation → bootstrap labels</text><text x="28" y="155" fill="#596273" font-family="Arial" font-size="16">→ 6-profile XGBRanker</text><line x1="28" y1="190" x2="402" y2="190" stroke="#dfe3dc"/><text x="28" y="220" fill="#142033" font-family="Arial" font-size="14" font-weight="700">380 OD · 1,137 routes</text></g>
<g transform="translate(585 536)"><rect width="430" height="250" rx="20" fill="#fff" stroke="#dfe3dc"/><text x="28" y="44" fill="#b51e2a" font-family="Arial" font-size="12" font-weight="800">RAG · EXPERIMENT DESIGN</text><text x="28" y="92" fill="#142033" font-family="Arial" font-size="30" font-weight="850">M_RAG</text><text x="28" y="130" fill="#596273" font-family="Arial" font-size="16">KR Query → EN Papers</text><text x="28" y="155" fill="#596273" font-family="Arial" font-size="16">HyDE / CAD / SCD → bilingual eval</text><line x1="28" y1="190" x2="402" y2="190" stroke="#dfe3dc"/><text x="28" y="220" fill="#142033" font-family="Arial" font-size="14" font-weight="700">19 queries × 8 configs</text></g>
<g transform="translate(1074 536)"><rect width="430" height="250" rx="20" fill="#fff" stroke="#dfe3dc"/><text x="28" y="44" fill="#b51e2a" font-family="Arial" font-size="12" font-weight="800">PPO · GAME ENVIRONMENT</text><text x="28" y="92" fill="#142033" font-family="Arial" font-size="30" font-weight="850">CODE BLUE</text><text x="28" y="130" fill="#596273" font-family="Arial" font-size="16">Action / Observation / Reward</text><text x="28" y="155" fill="#596273" font-family="Arial" font-size="16">→ fixed environment → long run</text><line x1="28" y1="190" x2="402" y2="190" stroke="#dfe3dc"/><text x="28" y="220" fill="#142033" font-family="Arial" font-size="14" font-weight="700">892 episodes · 199 clears</text></g>
<text x="96" y="846" fill="#596273" font-family="Arial" font-size="14">lxnx-hn.github.io</text>
</svg>